<?xml version="1.0" encoding="UTF-8" standalone="no"?>
<!-- Created with Inkscape (http://www.inkscape.org/) -->

<svg
   version="1.1"
   id="svg1"
   width="48.685711"
   height="78.322342"
   viewBox="0 0 48.68571 78.322342"
   sodipodi:docname="Lowpoly Rockwall Logo.svg"
   inkscape:version="1.3.2 (091e20e, 2023-11-25, custom)"
   inkscape:export-filename="poly rockwall logo.svg"
   inkscape:export-xdpi="96"
   inkscape:export-ydpi="96"
   xmlns:inkscape="http://www.inkscape.org/namespaces/inkscape"
   xmlns:sodipodi="http://sodipodi.sourceforge.net/DTD/sodipodi-0.dtd"
   xmlns="http://www.w3.org/2000/svg"
   xmlns:svg="http://www.w3.org/2000/svg">
  <defs
     id="defs1">
    <inkscape:path-effect
       effect="fillet_chamfer"
       id="path-effect1"
       is_visible="true"
       lpeversion="1"
       nodesatellites_param="F,0,0,1,0,18,0,3 @ F,0,0,1,0,18,0,3 @ F,0,0,1,0,18,0,3 @ F,0,0,1,0,18,0,3 @ F,0,0,1,0,18,0,3 @ F,0,0,1,0,18,0,3 @ F,0,0,1,0,18,0,3 @ F,0,0,1,0,18,0,3 @ F,0,0,1,0,18,0,3 @ F,0,0,1,0,18,0,3 @ F,0,0,1,0,18,0,3 @ F,0,0,1,0,18,0,3 @ F,0,0,1,0,18,0,3 @ F,0,0,1,0,18,0,3 | F,0,0,1,0,18,0,3 @ F,0,0,1,0,18,0,3 @ F,0,0,1,0,18,0,3 @ F,0,0,1,0,18,0,3 @ F,0,0,1,0,18,0,3 @ F,0,0,1,0,18,0,3 @ F,0,0,1,0,18,0,3 @ F,0,0,1,0,18,0,3 | F,0,0,1,0,18,0,3 @ F,0,0,1,0,18,0,3 @ F,0,0,1,0,18,0,3 @ F,0,0,1,0,18,0,3 @ F,0,0,1,0,18,0,3 @ F,0,0,1,0,18,0,3 @ F,0,0,1,0,18,0,3 @ F,0,0,1,0,18,0,3 @ F,0,0,1,0,18,0,3 @ F,0,0,1,0,18,0,3 @ F,0,0,1,0,18,0,3 @ F,0,0,1,0,18,0,3 @ F,0,0,1,0,18,0,3 @ F,0,0,1,0,18,0,3 @ F,0,0,1,0,18,0,3 @ F,0,0,1,0,18,0,3 @ F,0,0,1,0,18,0,3 @ F,0,0,1,0,18,0,3 @ F,0,0,1,0,18,0,3 @ F,0,0,1,0,18,0,3 @ F,0,0,1,0,18,0,3 @ F,0,0,1,0,18,0,3 @ F,0,0,1,0,18,0,3 @ F,0,0,1,0,18,0,3 @ F,0,0,1,0,18,0,3 @ F,0,0,1,0,18,0,3 @ F,0,0,1,0,18,0,3 @ F,0,0,1,0,18,0,3 @ F,0,0,1,0,18,0,3 @ F,0,0,1,0,18,0,3 | F,0,0,1,0,18,0,3 @ F,0,0,1,0,18,0,3 @ F,0,0,1,0,18,0,3 @ F,0,0,1,0,18,0,3 @ F,0,0,1,0,18,0,3 @ F,0,0,1,0,18,0,3 @ F,0,0,1,0,18,0,3 @ F,0,0,1,0,18,0,3 @ F,0,0,1,0,18,0,3 | F,0,0,1,0,18,0,3 @ F,0,0,1,0,18,0,3 @ F,0,0,1,0,18,0,3 @ F,0,0,1,0,18,0,3 @ F,0,0,1,0,18,0,3 @ F,0,0,1,0,18,0,3 @ F,0,0,1,0,18,0,3 @ F,0,0,1,0,18,0,3 @ F,0,0,1,0,18,0,3"
       radius="18"
       unit="px"
       method="auto"
       mode="F"
       chamfer_steps="4"
       flexible="false"
       use_knot_distance="true"
       apply_no_radius="true"
       apply_with_radius="true"
       only_selected="false"
       hide_knots="false" />
  </defs>
  <sodipodi:namedview
     id="namedview1"
     pagecolor="#ffffff"
     bordercolor="#000000"
     borderopacity="0.25"
     inkscape:showpageshadow="2"
     inkscape:pageopacity="0.0"
     inkscape:pagecheckerboard="0"
     inkscape:deskcolor="#d1d1d1"
     inkscape:zoom="4.8731437"
     inkscape:cx="-2.4624761"
     inkscape:cy="39.912634"
     inkscape:window-width="1920"
     inkscape:window-height="1174"
     inkscape:window-x="-11"
     inkscape:window-y="-11"
     inkscape:window-maximized="1"
     inkscape:current-layer="g1" />
  <g
     inkscape:groupmode="layer"
     inkscape:label="Image"
     id="g1"
     transform="translate(71.196443,4.5902758)">
    <path
       style="fill:#1a1a1a"
       d="m 17.376702,78.857146 -1.726873,-4.8 c -1.831208,-7.200001 -1.831208,-7.200001 -1.831208,-7.200001 l -0.104336,-2.4 h 2.283003 c 12.508605,5.612137 12.508605,5.612137 12.508605,5.612137 l 10.225601,5.612136 6.005681,0.09079 6.005681,0.09079 v 1.105964 c -2.652698,2.525644 -2.652698,2.525644 -2.652698,2.525644 L 45.437461,80.914287 36.090159,80.73375 C 22.059779,79.705181 22.059779,79.705181 22.059779,79.705181 Z M 6.8571427,75.516961 v -2.191496 c 4.0138633,-7.496891 4.0138633,-7.496891 4.0138633,-7.496891 2.074017,3.771429 2.074017,3.771429 2.074017,3.771429 1.61252,6.171428 1.61252,6.171428 1.61252,6.171428 l 0.713006,2.4 -1.120989,-0.08693 C 9.9428569,76.757266 9.9428569,76.757266 9.9428569,76.757266 Z m 31.2869833,-12.768993 -6.043492,0.828353 -6.043492,0.828352 v -1.881997 -1.881998 l -5.513467,-2.206052 c -9.6,-2.206053 -9.6,-2.206053 -9.6,-2.206053 H 6.8571427 v 1.452367 1.452366 L 5.4857141,58.285716 4.1142856,57.438127 V 46.106226 34.774325 L 6.4007278,28.063986 8.6871699,21.353647 15.106836,14.93398 C 25.949987,6.2268408 25.949987,6.2268408 25.949987,6.2268408 l 4.423485,-2.2874732 -0.417321,2.4874592 -0.417322,2.4874592 7.185402,6.713141 7.185401,6.713142 4.445183,9.02945 4.445184,9.02945 v 15.388838 15.388838 l -1.371429,1.356005 -1.371428,1.356005 -5.956508,-5.570594 z m -10.566828,-46.861151 -1.029918,-2.62747 -3.17501,9.874295 -3.17501,9.874296 0.766577,7.153175 c 3.175833,12.638889 3.175833,12.638889 3.175833,12.638889 l 2.409256,5.485714 1.046452,-5.485714 c 1.030907,-19.02247 3.420139,-28.141164 -0.01818,-36.913185 z m 3.854689,-8.1268648 0.412302,-2.1656903 0.412302,-2.1656903 2.919627,-0.4183127 2.919628,-0.4183127 3.602228,3.3384322 3.602228,3.3384322 -3.107295,0.8325824 C 34.573136,9.2728719 34.573136,9.2728719 34.573136,9.2728719 Z"
       id="path1"
       sodipodi:nodetypes="scsscsscccsscssscsssscssccccccsscccccccccsscccccccccccccscccsscscscccccccss"
       inkscape:original-d="m 22.059779,79.705181 -4.683077,-0.848035 -1.726873,-4.8 c -0.94978,-2.640001 -1.773824,-5.880001 -1.831208,-7.200001 l -0.104336,-2.4 h 2.283003 c 1.255652,0 6.884524,2.525462 12.508605,5.612137 l 10.225601,5.612136 6.005681,0.09079 6.005681,0.09079 v 1.105964 c 0,0.60828 -1.193714,1.74482 -2.652698,2.525644 L 45.437461,80.914287 36.090159,80.73375 C 30.949143,80.634457 24.635472,80.1716 22.059779,79.705181 Z M 9.9428569,76.757266 6.8571427,75.516961 v -2.191496 c 0,-2.830174 2.498578,-7.496891 4.0138633,-7.496891 0.645977,0 1.579284,1.697143 2.074017,3.771429 0.494733,2.074285 1.220367,4.851428 1.61252,6.171428 l 0.713006,2.4 -1.120989,-0.08693 C 13.533016,78.03669 11.64,77.439434 9.9428569,76.757266 Z m 34.1577771,-8.438705 -5.956508,-5.570593 -6.043492,0.828353 -6.043492,0.828352 v -1.881997 -1.881998 l -5.513467,-2.206052 c -3.032407,-1.213329 -7.352407,-2.206053 -9.6,-2.206053 H 6.8571427 v 1.452367 1.452366 L 5.4857141,58.285716 4.1142856,57.438127 V 46.106226 34.774325 L 6.4007278,28.063986 8.6871699,21.353647 15.106836,14.93398 C 18.637652,11.403164 23.51707,7.484951 25.949987,6.2268408 l 4.423485,-2.2874732 -0.417321,2.4874592 -0.417322,2.4874592 7.185402,6.713141 7.185401,6.713142 4.445183,9.02945 4.445184,9.02945 V 55.788307 71.177145 L 51.42857,72.53315 50.057142,73.889155 Z M 28.624573,32.914287 c -0.0095,-7.92 -0.480819,-15.582362 -1.047275,-17.02747 l -1.029918,-2.62747 -3.17501,9.874295 -3.17501,9.874296 0.766577,7.153175 c 0.421618,3.934246 1.850743,9.621746 3.175833,12.638889 l 2.409256,5.485714 1.046452,-5.485714 c 0.575548,-3.017143 1.038641,-11.965715 1.029095,-19.885715 z m 5.948563,-23.6414151 -3.141149,-1.5129197 0.412302,-2.1656903 0.412302,-2.1656903 2.919627,-0.4183127 2.919628,-0.4183127 3.602228,3.3384322 3.602228,3.3384322 -3.107295,0.8325824 c -3.816376,1.022578 -3.764988,1.028165 -7.619871,-0.8285211 z"
       inkscape:path-effect="#path-effect1"
       transform="translate(-75.310728,-7.182222)"
       inkscape:export-filename="poly rockwall logo.svg"
       inkscape:export-xdpi="252.39436"
       inkscape:export-ydpi="252.39436" />
  </g>
</svg>
